<svg viewBox="0 0 1024 1058.0025" xmlns="http://www.w3.org/2000/svg"><path d="M872 724q-8-9-16.5-16T838 694q-13-10-24-19.5T798 649q-10-41-24-82-14-42-30-81t-33-74q-16-35-31-62-3-11-4-22.5t-1-22.5l-.5-7.5q-.5-7.5-.5-8.5v-4.5-3.5q0-10-3-17t-8-12q-10-7-20-5t-13 4q-7 2-14 1.5t-15-1.5q1 0-26.5-3.5L547 244l-16-1.5-16-1.5q-10 0-17.5 7.5T488 264q0 1-.5 1.5t-.5 1.5l-1 5v3q0 6 3 11.5t8 8.5l13 10q0-1 10 6t14 10q5 6 7.5 12.5T544 346v1q-2 2-3.5 4l-1.5 2q-7 12-14 22.5T510 394q0 1-2 3l-2 2q-2 2-5 6.5t-4 11.5q-1 0-1 .5v1.5q0 7 3 13t8 12q-5-6-11.5-10t-12.5-6q-7-2-13.5.5T458 437l-1 1.5q-1 1.5-1 2.5-3 7-5 11.5t-3 6.5h-1q-4-8-16-29.5L419 408q-44-79-69-115t-45-35q-33 3-60 2t-62-4h-4q-12 1-23.5 14.5T144 294v3q0 5 3.5 9.5t8.5 5.5h3q25 3 31 11.5t6 19.5l-.5 1.5q-.5 1.5-.5 3.5-6 26-13 41.5T168 417q-1 1-1.5 4t-.5 5q0 8 6 15t13 12q-2-1-4-1.5t-3-.5q-12 0-17.5 5t-6.5 8q-1 0-1 1t-1 2q-13 44-29.5 90T86 655q0 1-2.5 5l-2.5 4q-14 22-28.5 41.5T13 737q-2 1-4 2.5T6 743q-3 4-4.5 9T0 762q0 5 1.5 10t4.5 9q6 7 14 9.5t16-.5q1 0 2-.5t2-1.5q25-20 58-27t75-2h4q9-1 15.5-8.5T200 732v-1.5-1.5q0-11-5.5-19.5T179 699l-.5-.5q-.5-.5-1.5-.5-4 0-6-1.5t-3-2.5q0-3-1-12.5l-1-9.5q0-34 14.5-76t44.5-93q0-1 .5-1.5t.5-1.5l2-11v-1-1l-1-2v-2q0-1-1-2-2-5-7-10t-11-9q10 2 18.5-.5T241 452l5-8 4-7 3-4 3-6q1-1 1-1.5v-.5l1.5-3.5 1.5-3.5 3 1.5 1 .5q27 13 51 59 25 47 44.5 103.5T392 693q12 54 15 83 0 10 5 18.5t13 12.5l7.5.5 7.5.5q3 0 3-.5t2-1.5l5-4 21-18 56-54q11-7 14.5-17t4.5-16v-1.5-2.5-2-2q0-1-.5-1.5l-.5-.5q-6-17-13.5-35T514 615q-5-10-7.5-19.5T504 577q0-11 3-21.5t6-22.5q4-12 7-25t5-29v-.5-.5q0-1-.5-2.5l-.5-1.5q-1-7-4.5-13.5T511 448q1 1 1.5 2.5t1.5 2.5q1 0 2 1l1 1 7.5 4.5 7.5 4.5q2 1 7.5 2t11.5-1q2 0 3-.5t2-1.5q2-1 3-2l3-3q2 1 5.5 3t6.5 8q23 38 42 81.5t33 91.5q3 12 4 20.5t1 15.5q0 9-1.5 13.5T649 697l-5 5q-8 7-15.5 13.5T615 726q-3 1-5 4t-3 6v1l-1 6.5-1 6.5 6 18q4 5 10.5 7.5T637 777q2 0 4.5-1t4.5-3q8-6 17.5-11t22.5-8q25-5 46.5-5t40.5 1q14 2 30.5 5.5T837 767q1 0 1.5.5l.5.5q10 3 19.5.5T874 759l2.5-8.5 2.5-8.5-4-15-1-2-2-2v1zM62 652l1.5-3q1.5-3 3.5-5 5-15 10.5-29T88 587q-3-15-4-30.5T83 525q0-54 14.5-104t41.5-93q-8-5-12.5-13.5T122 297v-3q0-19 17.5-38.5T177 233h8l18 2q9 1 17 1 45-36 101-57t119-21q56 0 108 17.5t96 49.5q11-1 19 2t13 7q6 5 11.5 13.5T695 269q47 50 74.5 115.5T797 525q0 9-.5 18t-1.5 17q7 21 13 41.5t11 40.5q2 8 8 14t15 14q12-34 18-70.5t6-74.5q0-91-33-171-34-79-92-139t-135-94q-78-35-166-35-89 0-166 35-78 34-136 94T46 354q-33 80-33 171 0 42 7.5 81.5T42 683q5-7 10-15l10-16zm708 120l10 2q5 1 9 2-29 42-66 77-38 35-83 59.5T544 950q-50 14-104 14-53 0-103-13-49-13-93-36.5T163 858q-38-33-67-73 16-5 34.5-5.5T170 781h11.5q1.5 0 2.5-1 48 52 114 82t142 30q77 0 144.5-32T700 774q20-2 37.5-2.5t32.5.5z"/></svg>